<svg version="1.1" id="Ebene_1" xmlns="http://www.w3.org/2000/svg" xmlns:xlink="http://www.w3.org/1999/xlink" x="0px" y="0px" viewBox="0 0 128.5 125.5" style="enable-background:new 0 0 128.5 125.5;" xml:space="preserve" class="content-logo" width="128.525px">
	<style type="text/css">
		.st3{fill:#00a7e5;}
		.st4{fill:#FFFFFF;}
	</style>
	<path class="st3" d="M21.9,125.5c-6.4,0-11.9-1.9-15.8-5.4l0,0c-3.9-3.5-6.1-8.5-6.1-14.4l0,0V21.1C0,14.8,1.9,9.4,5.8,5.7l0,0
	C9.7,1.9,15.5,0,22.8,0l0,0l84.6,0c7.1,0,12.4,1.8,16,5.4l0,0c3.6,3.5,5.2,8.6,5.1,14.6l0,0v88.5c0,8.6,0,15.5,0,15.5l0,0l0,1.5
	H21.9L21.9,125.5z"></path>
	<path class="st4" d="M68.5,103.5c1.8,1.6,3.7,3.2,10.3,3.2H105c0,0-1.9-3.8-3.9-5.3c-2.5-1.9-5.2-2.1-8-2.1l-27.1,0
	C66.1,99.4,66.7,101.9,68.5,103.5L68.5,103.5z M61.7,87.1c0.8,1.5,2.9,2.4,5.2,2.4c0,0,3.9,0.2,6.3,0c2-0.1,3.1-0.2,4.5-0.9
	c1.2-0.7,2.7-1.7,3.6-4.9l8.9-33.5c0.7-2.6,0.9-4.2,0-5.6c-1.2-1.8-3.5-2.2-5.9-2.2c0,0-3.2,0-5.2,0c-2.6,0-4.3,0.4-5.6,1.1
	c-1.3,0.8-2.5,2.2-3.2,4.8l-8.7,34.3C61.6,82.5,60.8,85.3,61.7,87.1L61.7,87.1z M94.7,85.1c-0.9,3.4-2.2,5.9-4.6,7.4
	c-2.4,1.5-5.3,2-11.5,1.9c0,0-12.2,0-18.3,0c-3.3,0-9-0.5-11.3-3.5c-2.5-3.2-1.4-6.6-0.6-10.1l8.5-33.5c0,0,1.1-5.7,4.3-7.7
	c3-1.8,7.2-1.7,14-1.7l16.7,0c0,0,8.6-0.4,11.4,3.7c2.3,3.1,1.1,6.8,0.3,10.3L94.7,85.1L94.7,85.1z M88.6,22.2H33.7
	c-3.3,0-6.4,0.3-9.1,2.5c-1.7,1.3-2,2.3-3,4.2H32c4.2,0,4.9,2,3.7,6.9L28.6,64c-1.4,5.8-1.8,10.8,1.5,15.7c2.8,4.2,7,4.5,7,4.5
	l12-46.1c0,0,0.8-5.2,3.7-7.2c1.7-1.2,4-1.5,6.7-1.5h13.2c2.6,0,8.4,0.2,11.4-1.7C86.3,26.1,87.5,24.5,88.6,22.2L88.6,22.2z"></path>
</svg>